<svg width="96" height="81" viewBox="0 0 96 81" fill="none" xmlns="http://www.w3.org/2000/svg">
<path d="M90.1329 28.6501C90.1245 28.4266 90.0674 28.2076 89.9657 28.0083C89.864 27.809 89.7201 27.6343 89.544 27.4963C89.368 27.3583 89.1639 27.2603 88.9462 27.2092C88.7284 27.158 88.502 27.1549 88.2829 27.2001C86.8824 27.462 85.4545 27.546 84.033 27.4501C79.8019 27.1566 75.8189 25.3465 72.8153 22.3521C69.8118 19.3577 67.9894 15.3802 67.683 11.1501C67.5871 9.71198 67.6711 8.26748 67.9329 6.85013C67.9857 6.63034 67.9881 6.40147 67.9399 6.18063C67.8918 5.95979 67.7944 5.75268 67.6549 5.57478C67.5155 5.39689 67.3377 5.2528 67.1347 5.15329C66.9318 5.05378 66.709 5.00142 66.4829 5.00013H15.1329C13.0954 4.70942 11.0182 4.897 9.06572 5.54802C7.11324 6.19904 5.3391 7.29562 3.88377 8.75095C2.42843 10.2063 1.33185 11.9804 0.680829 13.9329C0.0298116 15.8854 -0.157767 17.9626 0.132942 20.0001V65.0001C-0.157767 67.0377 0.0298116 69.1149 0.680829 71.0674C1.33185 73.0198 2.42843 74.794 3.88377 76.2493C5.3391 77.7047 7.11324 78.8012 9.06572 79.4522C11.0182 80.1033 13.0954 80.2908 15.1329 80.0001H75.1329C77.1705 80.2908 79.2477 80.1033 81.2002 79.4522C83.1527 78.8012 84.9268 77.7047 86.3821 76.2493C87.8375 74.794 88.934 73.0198 89.5851 71.0674C90.2361 69.1149 90.4237 67.0377 90.1329 65.0001V28.6501Z" fill="#CED8F9"/>
<path d="M85.1331 20C90.6559 20 95.1331 15.5228 95.1331 10C95.1331 4.47715 90.6559 0 85.1331 0C79.6102 0 75.1331 4.47715 75.1331 10C75.1331 15.5228 79.6102 20 85.1331 20Z" fill="#0B3EE3"/>
<path d="M45.133 52.3598C43.1431 52.3583 41.2133 51.6774 39.663 50.4298L17.788 32.9298C17.0486 32.2959 16.5845 31.3995 16.4935 30.4299C16.4025 29.4602 16.6918 28.4931 17.3004 27.7328C17.9089 26.9724 18.7891 26.4782 19.7552 26.3545C20.7212 26.2308 21.6975 26.4873 22.478 27.0698L44.353 44.5698C44.5752 44.745 44.85 44.8403 45.133 44.8403C45.416 44.8403 45.6908 44.745 45.913 44.5698L67.788 27.0698C68.1705 26.7419 68.615 26.4943 69.0952 26.3418C69.5753 26.1892 70.0812 26.1349 70.5828 26.1819C71.0844 26.229 71.5714 26.3765 72.0148 26.6157C72.4582 26.8549 72.8489 27.1809 73.1637 27.5742C73.4785 27.9675 73.711 28.4202 73.8472 28.9052C73.9834 29.3902 74.0206 29.8977 73.9567 30.3974C73.8927 30.8971 73.7288 31.3789 73.4748 31.8139C73.2207 32.249 72.8817 32.6285 72.478 32.9298L50.603 50.4298C49.0527 51.6774 47.1229 52.3583 45.133 52.3598Z" fill="#0B3EE3"/>
</svg>
